<?xml version="1.0" ?><!DOCTYPE svg  PUBLIC '-//W3C//DTD SVG 1.1//EN'  'http://www.w3.org/Graphics/SVG/1.1/DTD/svg11.dtd'><svg enable-background="new 0 0 512 512" height="512px" id="Layer_1" version="1.1" viewBox="0 0 512 512" width="512px" xml:space="preserve" xmlns="http://www.w3.org/2000/svg" xmlns:xlink="http://www.w3.org/1999/xlink"><path d="M367.216,286.85h-208.8c-3.96,0-7.2-3.24-7.2-7.2v0c0-3.96,3.24-7.2,7.2-7.2h208.8c3.96,0,7.2,3.24,7.2,7.2  v0C374.416,283.61,371.176,286.85,367.216,286.85z" fill="#672C28"/><path d="M138.25,366.282l2.338,1.88c3.086,2.481,7.641,1.986,10.123-1.1l65.146-81.03  c2.481-3.086,1.986-7.641-1.1-10.123l-2.338-1.88c-3.086-2.481-7.641-1.986-10.123,1.1l-65.146,81.03  C134.669,359.246,135.164,363.801,138.25,366.282z" fill="#672C28"/><path d="M255.016,378.65h3c3.96,0,7.2-3.24,7.2-7.2v-91.8c0-3.96-3.24-7.2-7.2-7.2h-3c-3.96,0-7.2,3.24-7.2,7.2v91.8  C247.816,375.41,251.056,378.65,255.016,378.65z" fill="#672C28"/><path d="M309.965,273.621l-2.509,1.644c-3.312,2.171-4.246,6.656-2.076,9.969l55.326,84.425  c2.171,3.312,6.656,4.246,9.969,2.076l2.509-1.644c3.312-2.171,4.246-6.656,2.076-9.969l-55.326-84.425  C317.763,272.384,313.278,271.45,309.965,273.621z" fill="#672C28"/><rect fill="#019547" height="97.8" stroke="#231F20" stroke-miterlimit="10" stroke-width="5" width="184.2" x="170.716" y="174.65"/><rect fill="#672C28" height="114.753" width="9.775" x="159.828" y="164.897"/><rect fill="#672C28" height="110.079" width="8.4" x="355.816" y="165.087"/><rect fill="#672C28" height="9.775" width="193.888" x="169.516" y="164.854"/></svg>